<?xml version="1.0" encoding="UTF-8" standalone="no"?>
<!DOCTYPE svg PUBLIC "-//W3C//DTD SVG 1.1//EN"
"http://www.w3.org/Graphics/SVG/1.1/DTD/svg11.dtd">
<svg class="svg-group" id="map-container" preserveAspectRatio="xMinYMin meet" viewBox="0 0 1041.6666666666667 321.5" version="1.1" xmlns="http://www.w3.org/2000/svg"><g class="treeSpecies" id="root.mixture6" transform="translate(10,0)" width="358" height="154"><rect width="486" height="292" fill="grey"></rect><g class="treeNodes" id="mixture6.C" transform="translate(2,2)"><rect class="treeRects" id="mixture6.C" width="482" height="288" fill="rgb(255, 152, 17)"></rect></g></g><g class="treeSpecies" id="root.mixture5" transform="translate(500, 0)" width="358" height="154"><rect width="335" height="153" fill="grey"></rect><g class="treeNodes" id="mixture5.C" transform="translate(2,2)"><rect class="treeRects" id="mixture5.C" width="331" height="149" fill="rgb(255, 152, 17)"></rect></g></g><g class="treeSpecies" id="root.mixture4" transform="translate(500, 157)" width="237" height="154"><rect width="335" height="135" fill="grey"></rect><g class="treeNodes" id="mixture4.C" transform="translate(2,2)"><rect class="treeRects" id="mixture4.C" width="331" height="131" fill="rgb(255, 152, 17)"></rect></g></g><g class="treeSpecies" id="root.mixture8" transform="translate(839, 0)" width="237" height="154"><rect width="106" height="135" fill="grey"></rect><g class="treeNodes" id="mixture8.B" transform="translate(2,2)"><rect class="treeRects" id="mixture8.B" width="102" height="131" fill="rgb(208, 238, 255)"></rect></g></g><g class="treeSpecies" id="root.mixture9" transform="translate(949, 0)" width="177" height="206"><rect width="83" height="135" fill="grey"></rect><g class="treeNodes" id="mixture9.A" transform="translate(2,2)"><rect class="treeRects" id="mixture9.A" width="79" height="131" fill="rgb(37, 142, 215)"></rect></g></g><g class="treeSpecies" id="root.mixture7" transform="translate(839, 139)" width="177" height="102"><rect width="121" height="85" fill="grey"></rect><g class="treeNodes" id="mixture7.A" transform="translate(2,2)"><rect class="treeRects" id="mixture7.A" width="117" height="41" fill="rgb(37, 142, 215)"></rect></g><g class="treeNodes" id="mixture7.B" transform="translate(2,43)"><rect class="treeRects" id="mixture7.B" width="117" height="40" fill="rgb(208, 238, 255)"></rect></g></g><g class="treeSpecies" id="root.mixture1" transform="translate(839, 228)" width="117" height="154"><rect width="121" height="64" fill="grey"></rect><g class="treeNodes" id="mixture1.B" transform="translate(2,2)"><rect class="treeRects" id="mixture1.B" width="78" height="30" fill="rgb(208, 238, 255)"></rect></g><g class="treeNodes" id="mixture1.A" transform="translate(2,32)"><rect class="treeRects" id="mixture1.A" width="78" height="30" fill="rgb(37, 142, 215)"></rect></g><g class="treeNodes" id="mixture1.C" transform="translate(80,2)"><rect class="treeRects" id="mixture1.C" width="39" height="60" fill="rgb(255, 152, 17)"></rect></g></g><g class="treeSpecies" id="root.mixture3" transform="translate(964, 139)" width="117" height="154"><rect width="68" height="75" fill="grey"></rect><g class="treeNodes" id="mixture3.A" transform="translate(2,2)"><rect class="treeRects" id="mixture3.A" width="32" height="71" fill="rgb(37, 142, 215)"></rect></g><g class="treeNodes" id="mixture3.C" transform="translate(34,2)"><rect class="treeRects" id="mixture3.C" width="32" height="71" fill="rgb(255, 152, 17)"></rect></g></g><g class="treeSpecies" id="root.mixture0" transform="translate(964, 218)" width="238" height="75"><rect width="68" height="59" fill="grey"></rect><g class="treeNodes" id="mixture0.A" transform="translate(2,2)"><rect class="treeRects" id="mixture0.A" width="43" height="28" fill="rgb(37, 142, 215)"></rect></g><g class="treeNodes" id="mixture0.B" transform="translate(2,30)"><rect class="treeRects" id="mixture0.B" width="43" height="27" fill="rgb(208, 238, 255)"></rect></g><g class="treeNodes" id="mixture0.C" transform="translate(45,2)"><rect class="treeRects" id="mixture0.C" width="21" height="55" fill="rgb(255, 152, 17)"></rect></g></g><g class="treeSpecies" id="root.mixture2" transform="translate(964, 281)" width="238" height="75"><rect width="68" height="11" fill="grey"></rect><g class="treeNodes" id="mixture2.A" transform="translate(2,2)"><rect class="treeRects" id="mixture2.A" width="32" height="7" fill="rgb(37, 142, 215)"></rect></g><g class="treeNodes" id="mixture2.C" transform="translate(34,2)"><rect class="treeRects" id="mixture2.C" width="32" height="7" fill="rgb(255, 152, 17)"></rect></g></g></svg>