<svg xmlns="http://www.w3.org/2000/svg" version="1.1" title="snapshot map" height="470.6666666666667" width="706" class="svg-group"><defs><style type="text/css"><![CDATA[
html { position: relative;
       min-height: 100%; }

body { margin-bottom: 60px; }


span.filler:empty:before {
}

.plot-axis path,
.plot-axis line { fill: none;
                  stroke: #000;
                  shape-rendering: crispEdges; }
.plot-line { fill: none;
             stroke: steelblue;
             stroke-width: 1.5px; }
.plot-legend { font-size: 10px; }

rect { stroke-width: 2; }


.footer {
    position: absolute;
    bottom: 0;
    width: 100%;
    /* Set the fixed height of the footer here */
    height: 60px;
    background-color: #f5f5f5;
}

.display-header {
    padding: 20px;
}

.numberCircle {
    display:inline-block;

    border-radius:50%;
    border:2px solid;

    font-size:32px;
}

.numberCircle:before,
.numberCircle:after {
    display:inline-block;
    line-height:0px;

    padding-top:50%;
    padding-bottom:50%;
}

.numberCircle:before {
    padding-left:8px;
}
.numberCircle:after {
    padding-right:8px;
}

#file-selector {
    display:none;
}
.panel-content {
    min-height: 50% !important;
}
.panel-pre {
    white-space : pre;
}
.panel-footer-white {
    background:white;
}
.filename {
    display: inline-block;
    padding: 6px 12px;
    margin-bottom: 0;
    font-size: 14px;
    font-weight: 400;
    line-height: 1.42857143;
    text-align: center;
    white-space: nowrap;
    vertical-align: middle;
    background: rgb(245, 245, 245);
    border : 0px;
    cursor : default;
}
.error-footer {
    color: rgb(169, 68, 66);
    background-color: rgb(242, 222, 222);
}

.warning-footer {
    color: rgb(138, 109, 59);
    background-color: rgb(252, 248, 227);
}

.node-rect { stroke-width:2;
             stroke: #000;
             fill-opacity:0.5;
             stroke-width : 2;
}
.node-text { font: 10px sans-serif; }
.node-proof {
              opacity : 0.0;
}
.site-rect {  stroke-width:1;
              stroke: #000;
}
.site-text { font: sans-serif; }

.node-proof { opacity : 0.0;
            }

.link-proof { fill: red;
              opacity : 0.0; }

.site-proof { fill: blue;
              opacity : 0.0; }
.link-line { stroke : black;
             stroke-width : 2;
}


.contact_map_content {
    min-height: 50%;
}

.snapshot_control {
    margin-top: 10px;
}

.checkbox-control {
    vertical-align: bottom;
    margin: 1px !important;
}

.CodeMirror {
    border: 1px solid #eee;
    min-height: 40px;

    height: calc(100% - 320px);
    height: -webkit-calc(100% - 320px);
    height: -moz-calc(100vh - 400px);

}

.plot-legend-swatch { stroke-width : 1; }
.plot-tick-proof { }
.contact-tooltip { position: fixed;
                   z-index: 10; padding: 2px;
                   border-style: solid;
                   border-width: 2px;
                   border-radius : 4px;
                   opacity : 0.8; }   ]]></style></defs><g transform="translate(10,10)"><path d="M420.5249996185303,285.83331298828125L462.4750003814697,280.83331298828125" class="link-line"></path><path d="M409.5249996185303,399.83331298828125L463.4583330154419,400.83331298828125" class="link-line"></path><path d="M463.4583330154419,400.83331298828125L409.5249996185303,399.83331298828125" class="link-line"></path><path d="M520,355.83331298828125L519,325.83331298828125" class="link-line"></path><path d="M462.4750003814697,280.83331298828125L420.5249996185303,285.83331298828125" class="link-line"></path><path d="M519,325.83331298828125L520,355.83331298828125" class="link-line"></path><path d="M218,211.8333282470703L220,244.83331298828125" class="link-line"></path><path d="M220,244.83331298828125L218,211.8333282470703" class="link-line"></path><path d="M156.47500038146973,399.83331298828125L118.52499961853027,398.83331298828125" class="link-line"></path><path d="M118.52499961853027,398.83331298828125L156.47500038146973,399.83331298828125" class="link-line"></path><path d="M426.5249996185303,166.8333282470703L460.4583330154419,166.8333282470703" class="link-line"></path><path d="M74,125.83332824707031L68,91.83332824707031" class="link-line"></path><path d="M68,91.83332824707031L74,125.83332824707031" class="link-line"></path><path d="M124.52499961853027,46.83332824707031L157.9583330154419,42.83332824707031" class="link-line"></path><path d="M271.0416669845581,42.83332824707031L307.4750003814697,42.83332824707031" class="link-line"></path><path d="M157.9583330154419,42.83332824707031L124.52499961853027,46.83332824707031" class="link-line"></path><path d="M420.5249996185303,42.83332824707031L458.4750003814697,40.83332824707031" class="link-line"></path><path d="M307.4750003814697,42.83332824707031L271.0416669845581,42.83332824707031" class="link-line"></path><path d="M458.4750003814697,40.83332824707031L420.5249996185303,42.83332824707031" class="link-line"></path><path d="M515,85.83332824707031L517,121.83332824707031" class="link-line"></path><path d="M460.4583330154419,166.8333282470703L426.5249996185303,166.8333282470703" class="link-line"></path><path d="M517,121.83332824707031L515,85.83332824707031" class="link-line"></path><g transform="translate(364,285.83331298828125)" class="node-group"><text y="0" x="0" style="text-anchor: middle;" class="node-text">Prot1</text><rect height="90" width="113.04999923706055" y="-45" x="-56.52499961853027" fill="#1fceca" class="node-rect" ry="5" rx="5"></rect><circle r="2" cx="0" cy="0" class="node-proof"></circle><g transform="translate(42.96666622161865,-13)" class="site-group"><rect height="26" width="27.116666793823242" fill="#1fceca" ry="3" rx="3" class="site-rect"></rect><circle transform="translate(0,0)" r="2" cx="0" cy="0" class="site-proof"></circle><text y="13" x="13.558333396911621" style="text-anchor: middle;" class="site-text">P2</text></g><g transform="translate(-70.0833330154419,32)" class="site-group"><rect height="26" width="27.116666793823242" fill="#1fceca" ry="3" rx="3" class="site-rect"></rect><circle transform="translate(0,0)" r="2" cx="0" cy="0" class="site-proof"></circle><text y="13" x="13.558333396911621" style="text-anchor: middle;" class="site-text">P3</text></g><g transform="translate(-17.449999809265137,32)" class="site-group"><rect height="26" width="34.89999961853027" fill="#1fceca" ry="3" rx="3" class="site-rect"></rect><circle transform="translate(0,0)" r="2" cx="0" cy="0" class="site-proof"></circle><text y="13" x="17.449999809265137" style="text-anchor: middle;" class="site-text">S12</text></g></g><g transform="translate(353,399.83331298828125)" class="node-group"><text y="0" x="0" style="text-anchor: middle;" class="node-text">Prot1</text><rect height="90" width="113.04999923706055" y="-45" x="-56.52499961853027" fill="#1fceca" class="node-rect" ry="5" rx="5"></rect><circle r="2" cx="0" cy="0" class="node-proof"></circle><g transform="translate(-70.0833330154419,32)" class="site-group"><rect height="26" width="27.116666793823242" fill="#1fceca" ry="3" rx="3" class="site-rect"></rect><circle transform="translate(0,0)" r="2" cx="0" cy="0" class="site-proof"></circle><text y="13" x="13.558333396911621" style="text-anchor: middle;" class="site-text">P2</text></g><g transform="translate(42.96666622161865,-13)" class="site-group"><rect height="26" width="27.116666793823242" fill="#1fceca" ry="3" rx="3" class="site-rect"></rect><circle transform="translate(0,0)" r="2" cx="0" cy="0" class="site-proof"></circle><text y="13" x="13.558333396911621" style="text-anchor: middle;" class="site-text">P3</text></g><g transform="translate(-17.449999809265137,32)" class="site-group"><rect height="26" width="34.89999961853027" fill="#1fceca" ry="3" rx="3" class="site-rect"></rect><circle transform="translate(0,0)" r="2" cx="0" cy="0" class="site-proof"></circle><text y="13" x="17.449999809265137" style="text-anchor: middle;" class="site-text">S12</text></g></g><g transform="translate(520,400.83331298828125)" class="node-group"><text y="0" x="0" style="text-anchor: middle;" class="node-text">Prot3</text><rect height="90" width="113.08333396911621" y="-45" x="-56.541666984558105" fill="#2cc30c" class="node-rect" ry="5" rx="5"></rect><circle r="2" cx="0" cy="0" class="node-proof"></circle><g transform="translate(-70.10000038146973,-13)" class="site-group"><rect height="26" width="27.116666793823242" fill="#2cc30c" ry="3" rx="3" class="site-rect"></rect><circle transform="translate(0,0)" r="2" cx="0" cy="0" class="site-proof"></circle><text y="13" x="13.558333396911621" style="text-anchor: middle;" class="site-text">P1</text></g><g transform="translate(-13.558333396911621,-58)" class="site-group"><rect height="26" width="27.116666793823242" fill="#2cc30c" ry="3" rx="3" class="site-rect"></rect><circle transform="translate(0,0)" r="2" cx="0" cy="0" class="site-proof"></circle><text y="13" x="13.558333396911621" style="text-anchor: middle;" class="site-text">P2</text></g><g transform="translate(-73.99166679382324,32)" class="site-group"><rect height="26" width="34.89999961853027" fill="#2cc30c" ry="3" rx="3" class="site-rect"></rect><circle transform="translate(0,0)" r="2" cx="0" cy="0" class="site-proof"></circle><text y="13" x="17.449999809265137" style="text-anchor: middle;" class="site-text">S12</text></g></g><g transform="translate(519,280.83331298828125)" class="node-group"><text y="0" x="0" style="text-anchor: middle;" class="node-text">Prot2</text><rect height="90" width="113.04999923706055" y="-45" x="-56.52499961853027" fill="#a648eb" class="node-rect" ry="5" rx="5"></rect><circle r="2" cx="0" cy="0" class="node-proof"></circle><g transform="translate(-70.0833330154419,-13)" class="site-group"><rect height="26" width="27.116666793823242" fill="#a648eb" ry="3" rx="3" class="site-rect"></rect><circle transform="translate(0,0)" r="2" cx="0" cy="0" class="site-proof"></circle><text y="13" x="13.558333396911621" style="text-anchor: middle;" class="site-text">P1</text></g><g transform="translate(-13.558333396911621,32)" class="site-group"><rect height="26" width="27.116666793823242" fill="#a648eb" ry="3" rx="3" class="site-rect"></rect><circle transform="translate(0,0)" r="2" cx="0" cy="0" class="site-proof"></circle><text y="13" x="13.558333396911621" style="text-anchor: middle;" class="site-text">P3</text></g><g transform="translate(-73.97499942779541,32)" class="site-group"><rect height="26" width="34.89999961853027" fill="#a648eb" ry="3" rx="3" class="site-rect"></rect><circle transform="translate(0,0)" r="2" cx="0" cy="0" class="site-proof"></circle><text y="13" x="17.449999809265137" style="text-anchor: middle;" class="site-text">S12</text></g></g><g transform="translate(218,166.8333282470703)" class="node-group"><text y="0" x="0" style="text-anchor: middle;" class="node-text">Prot1</text><rect height="90" width="113.04999923706055" y="-45" x="-56.52499961853027" fill="#1fceca" class="node-rect" ry="5" rx="5"></rect><circle r="2" cx="0" cy="0" class="node-proof"></circle><g transform="translate(-70.0833330154419,32)" class="site-group"><rect height="26" width="27.116666793823242" fill="#1fceca" ry="3" rx="3" class="site-rect"></rect><circle transform="translate(0,0)" r="2" cx="0" cy="0" class="site-proof"></circle><text y="13" x="13.558333396911621" style="text-anchor: middle;" class="site-text">P2</text></g><g transform="translate(-13.558333396911621,32)" class="site-group"><rect height="26" width="27.116666793823242" fill="#1fceca" ry="3" rx="3" class="site-rect"></rect><circle transform="translate(0,0)" r="2" cx="0" cy="0" class="site-proof"></circle><text y="13" x="13.558333396911621" style="text-anchor: middle;" class="site-text">P3</text></g><g transform="translate(39.07499980926514,32)" class="site-group"><rect height="26" width="34.89999961853027" fill="#1fceca" ry="3" rx="3" class="site-rect"></rect><circle transform="translate(0,0)" r="2" cx="0" cy="0" class="site-proof"></circle><text y="13" x="17.449999809265137" style="text-anchor: middle;" class="site-text">S12</text></g></g><g transform="translate(220,289.83331298828125)" class="node-group"><text y="0" x="0" style="text-anchor: middle;" class="node-text">Prot3</text><rect height="90" width="113.08333396911621" y="-45" x="-56.541666984558105" fill="#2cc30c" class="node-rect" ry="5" rx="5"></rect><circle r="2" cx="0" cy="0" class="node-proof"></circle><g transform="translate(-13.558333396911621,-58)" class="site-group"><rect height="26" width="27.116666793823242" fill="#2cc30c" ry="3" rx="3" class="site-rect"></rect><circle transform="translate(0,0)" r="2" cx="0" cy="0" class="site-proof"></circle><text y="13" x="13.558333396911621" style="text-anchor: middle;" class="site-text">P1</text></g><g transform="translate(-70.10000038146973,32)" class="site-group"><rect height="26" width="27.116666793823242" fill="#2cc30c" ry="3" rx="3" class="site-rect"></rect><circle transform="translate(0,0)" r="2" cx="0" cy="0" class="site-proof"></circle><text y="13" x="13.558333396911621" style="text-anchor: middle;" class="site-text">P2</text></g><g transform="translate(-17.449999809265137,32)" class="site-group"><rect height="26" width="34.89999961853027" fill="#2cc30c" ry="3" rx="3" class="site-rect"></rect><circle transform="translate(0,0)" r="2" cx="0" cy="0" class="site-proof"></circle><text y="13" x="17.449999809265137" style="text-anchor: middle;" class="site-text">S12</text></g></g><g transform="translate(213,399.83331298828125)" class="node-group"><text y="0" x="0" style="text-anchor: middle;" class="node-text">Prot1</text><rect height="90" width="113.04999923706055" y="-45" x="-56.52499961853027" fill="#1fceca" class="node-rect" ry="5" rx="5"></rect><circle r="2" cx="0" cy="0" class="node-proof"></circle><g transform="translate(-70.0833330154419,-13)" class="site-group"><rect height="26" width="27.116666793823242" fill="#1fceca" ry="3" rx="3" class="site-rect"></rect><circle transform="translate(0,0)" r="2" cx="0" cy="0" class="site-proof"></circle><text y="13" x="13.558333396911621" style="text-anchor: middle;" class="site-text">P2</text></g><g transform="translate(-70.0833330154419,32)" class="site-group"><rect height="26" width="27.116666793823242" fill="#1fceca" ry="3" rx="3" class="site-rect"></rect><circle transform="translate(0,0)" r="2" cx="0" cy="0" class="site-proof"></circle><text y="13" x="13.558333396911621" style="text-anchor: middle;" class="site-text">P3</text></g><g transform="translate(-17.449999809265137,32)" class="site-group"><rect height="26" width="34.89999961853027" fill="#1fceca" ry="3" rx="3" class="site-rect"></rect><circle transform="translate(0,0)" r="2" cx="0" cy="0" class="site-proof"></circle><text y="13" x="17.449999809265137" style="text-anchor: middle;" class="site-text">S12</text></g></g><g transform="translate(62,398.83331298828125)" class="node-group"><text y="0" x="0" style="text-anchor: middle;" class="node-text">Prot2</text><rect height="90" width="113.04999923706055" y="-45" x="-56.52499961853027" fill="#a648eb" class="node-rect" ry="5" rx="5"></rect><circle r="2" cx="0" cy="0" class="node-proof"></circle><g transform="translate(42.96666622161865,-13)" class="site-group"><rect height="26" width="27.116666793823242" fill="#a648eb" ry="3" rx="3" class="site-rect"></rect><circle transform="translate(0,0)" r="2" cx="0" cy="0" class="site-proof"></circle><text y="13" x="13.558333396911621" style="text-anchor: middle;" class="site-text">P1</text></g><g transform="translate(-70.0833330154419,32)" class="site-group"><rect height="26" width="27.116666793823242" fill="#a648eb" ry="3" rx="3" class="site-rect"></rect><circle transform="translate(0,0)" r="2" cx="0" cy="0" class="site-proof"></circle><text y="13" x="13.558333396911621" style="text-anchor: middle;" class="site-text">P3</text></g><g transform="translate(-17.449999809265137,32)" class="site-group"><rect height="26" width="34.89999961853027" fill="#a648eb" ry="3" rx="3" class="site-rect"></rect><circle transform="translate(0,0)" r="2" cx="0" cy="0" class="site-proof"></circle><text y="13" x="17.449999809265137" style="text-anchor: middle;" class="site-text">S12</text></g></g><g transform="translate(370,166.8333282470703)" class="node-group"><text y="0" x="0" style="text-anchor: middle;" class="node-text">Prot1</text><rect height="90" width="113.04999923706055" y="-45" x="-56.52499961853027" fill="#1fceca" class="node-rect" ry="5" rx="5"></rect><circle r="2" cx="0" cy="0" class="node-proof"></circle><g transform="translate(-70.0833330154419,32)" class="site-group"><rect height="26" width="27.116666793823242" fill="#1fceca" ry="3" rx="3" class="site-rect"></rect><circle transform="translate(0,0)" r="2" cx="0" cy="0" class="site-proof"></circle><text y="13" x="13.558333396911621" style="text-anchor: middle;" class="site-text">P2</text></g><g transform="translate(42.96666622161865,-13)" class="site-group"><rect height="26" width="27.116666793823242" fill="#1fceca" ry="3" rx="3" class="site-rect"></rect><circle transform="translate(0,0)" r="2" cx="0" cy="0" class="site-proof"></circle><text y="13" x="13.558333396911621" style="text-anchor: middle;" class="site-text">P3</text></g><g transform="translate(-17.449999809265137,32)" class="site-group"><rect height="26" width="34.89999961853027" fill="#1fceca" ry="3" rx="3" class="site-rect"></rect><circle transform="translate(0,0)" r="2" cx="0" cy="0" class="site-proof"></circle><text y="13" x="17.449999809265137" style="text-anchor: middle;" class="site-text">S12</text></g></g><g transform="translate(74,170.8333282470703)" class="node-group"><text y="0" x="0" style="text-anchor: middle;" class="node-text">Prot1</text><rect height="90" width="113.04999923706055" y="-45" x="-56.52499961853027" fill="#1fceca" class="node-rect" ry="5" rx="5"></rect><circle r="2" cx="0" cy="0" class="node-proof"></circle><g transform="translate(-13.558333396911621,-58)" class="site-group"><rect height="26" width="27.116666793823242" fill="#1fceca" ry="3" rx="3" class="site-rect"></rect><circle transform="translate(0,0)" r="2" cx="0" cy="0" class="site-proof"></circle><text y="13" x="13.558333396911621" style="text-anchor: middle;" class="site-text">P2</text></g><g transform="translate(-70.0833330154419,32)" class="site-group"><rect height="26" width="27.116666793823242" fill="#1fceca" ry="3" rx="3" class="site-rect"></rect><circle transform="translate(0,0)" r="2" cx="0" cy="0" class="site-proof"></circle><text y="13" x="13.558333396911621" style="text-anchor: middle;" class="site-text">P3</text></g><g transform="translate(-17.449999809265137,32)" class="site-group"><rect height="26" width="34.89999961853027" fill="#1fceca" ry="3" rx="3" class="site-rect"></rect><circle transform="translate(0,0)" r="2" cx="0" cy="0" class="site-proof"></circle><text y="13" x="17.449999809265137" style="text-anchor: middle;" class="site-text">S12</text></g></g><g transform="translate(68,46.83332824707031)" class="node-group"><text y="0" x="0" style="text-anchor: middle;" class="node-text">Prot2</text><rect height="90" width="113.04999923706055" y="-45" x="-56.52499961853027" fill="#a648eb" class="node-rect" ry="5" rx="5"></rect><circle r="2" cx="0" cy="0" class="node-proof"></circle><g transform="translate(-13.558333396911621,32)" class="site-group"><rect height="26" width="27.116666793823242" fill="#a648eb" ry="3" rx="3" class="site-rect"></rect><circle transform="translate(0,0)" r="2" cx="0" cy="0" class="site-proof"></circle><text y="13" x="13.558333396911621" style="text-anchor: middle;" class="site-text">P1</text></g><g transform="translate(42.96666622161865,-13)" class="site-group"><rect height="26" width="27.116666793823242" fill="#a648eb" ry="3" rx="3" class="site-rect"></rect><circle transform="translate(0,0)" r="2" cx="0" cy="0" class="site-proof"></circle><text y="13" x="13.558333396911621" style="text-anchor: middle;" class="site-text">P3</text></g><g transform="translate(-73.97499942779541,32)" class="site-group"><rect height="26" width="34.89999961853027" fill="#a648eb" ry="3" rx="3" class="site-rect"></rect><circle transform="translate(0,0)" r="2" cx="0" cy="0" class="site-proof"></circle><text y="13" x="17.449999809265137" style="text-anchor: middle;" class="site-text">S12</text></g></g><g transform="translate(214.5,42.83332824707031)" class="node-group"><text y="0" x="0" style="text-anchor: middle;" class="node-text">Prot3</text><rect height="90" width="113.08333396911621" y="-45" x="-56.541666984558105" fill="#2cc30c" class="node-rect" ry="5" rx="5"></rect><circle r="2" cx="0" cy="0" class="node-proof"></circle><g transform="translate(42.983333587646484,-13)" class="site-group"><rect height="26" width="27.116666793823242" fill="#2cc30c" ry="3" rx="3" class="site-rect"></rect><circle transform="translate(0,0)" r="2" cx="0" cy="0" class="site-proof"></circle><text y="13" x="13.558333396911621" style="text-anchor: middle;" class="site-text">P1</text></g><g transform="translate(-70.10000038146973,-13)" class="site-group"><rect height="26" width="27.116666793823242" fill="#2cc30c" ry="3" rx="3" class="site-rect"></rect><circle transform="translate(0,0)" r="2" cx="0" cy="0" class="site-proof"></circle><text y="13" x="13.558333396911621" style="text-anchor: middle;" class="site-text">P2</text></g><g transform="translate(-73.99166679382324,32)" class="site-group"><rect height="26" width="34.89999961853027" fill="#2cc30c" ry="3" rx="3" class="site-rect"></rect><circle transform="translate(0,0)" r="2" cx="0" cy="0" class="site-proof"></circle><text y="13" x="17.449999809265137" style="text-anchor: middle;" class="site-text">S12</text></g></g><g transform="translate(364,42.83332824707031)" class="node-group"><text y="0" x="0" style="text-anchor: middle;" class="node-text">Prot1</text><rect height="90" width="113.04999923706055" y="-45" x="-56.52499961853027" fill="#1fceca" class="node-rect" ry="5" rx="5"></rect><circle r="2" cx="0" cy="0" class="node-proof"></circle><g transform="translate(42.96666622161865,-13)" class="site-group"><rect height="26" width="27.116666793823242" fill="#1fceca" ry="3" rx="3" class="site-rect"></rect><circle transform="translate(0,0)" r="2" cx="0" cy="0" class="site-proof"></circle><text y="13" x="13.558333396911621" style="text-anchor: middle;" class="site-text">P2</text></g><g transform="translate(-70.0833330154419,-13)" class="site-group"><rect height="26" width="27.116666793823242" fill="#1fceca" ry="3" rx="3" class="site-rect"></rect><circle transform="translate(0,0)" r="2" cx="0" cy="0" class="site-proof"></circle><text y="13" x="13.558333396911621" style="text-anchor: middle;" class="site-text">P3</text></g><g transform="translate(-73.97499942779541,32)" class="site-group"><rect height="26" width="34.89999961853027" fill="#1fceca" ry="3" rx="3" class="site-rect"></rect><circle transform="translate(0,0)" r="2" cx="0" cy="0" class="site-proof"></circle><text y="13" x="17.449999809265137" style="text-anchor: middle;" class="site-text">S12</text></g></g><g transform="translate(515,40.83332824707031)" class="node-group"><text y="0" x="0" style="text-anchor: middle;" class="node-text">Prot2</text><rect height="90" width="113.04999923706055" y="-45" x="-56.52499961853027" fill="#a648eb" class="node-rect" ry="5" rx="5"></rect><circle r="2" cx="0" cy="0" class="node-proof"></circle><g transform="translate(-70.0833330154419,-13)" class="site-group"><rect height="26" width="27.116666793823242" fill="#a648eb" ry="3" rx="3" class="site-rect"></rect><circle transform="translate(0,0)" r="2" cx="0" cy="0" class="site-proof"></circle><text y="13" x="13.558333396911621" style="text-anchor: middle;" class="site-text">P1</text></g><g transform="translate(-13.558333396911621,32)" class="site-group"><rect height="26" width="27.116666793823242" fill="#a648eb" ry="3" rx="3" class="site-rect"></rect><circle transform="translate(0,0)" r="2" cx="0" cy="0" class="site-proof"></circle><text y="13" x="13.558333396911621" style="text-anchor: middle;" class="site-text">P3</text></g><g transform="translate(-73.97499942779541,32)" class="site-group"><rect height="26" width="34.89999961853027" fill="#a648eb" ry="3" rx="3" class="site-rect"></rect><circle transform="translate(0,0)" r="2" cx="0" cy="0" class="site-proof"></circle><text y="13" x="17.449999809265137" style="text-anchor: middle;" class="site-text">S12</text></g></g><g transform="translate(517,166.8333282470703)" class="node-group"><text y="0" x="0" style="text-anchor: middle;" class="node-text">Prot3</text><rect height="90" width="113.08333396911621" y="-45" x="-56.541666984558105" fill="#2cc30c" class="node-rect" ry="5" rx="5"></rect><circle r="2" cx="0" cy="0" class="node-proof"></circle><g transform="translate(-70.10000038146973,-13)" class="site-group"><rect height="26" width="27.116666793823242" fill="#2cc30c" ry="3" rx="3" class="site-rect"></rect><circle transform="translate(0,0)" r="2" cx="0" cy="0" class="site-proof"></circle><text y="13" x="13.558333396911621" style="text-anchor: middle;" class="site-text">P1</text></g><g transform="translate(-13.558333396911621,-58)" class="site-group"><rect height="26" width="27.116666793823242" fill="#2cc30c" ry="3" rx="3" class="site-rect"></rect><circle transform="translate(0,0)" r="2" cx="0" cy="0" class="site-proof"></circle><text y="13" x="13.558333396911621" style="text-anchor: middle;" class="site-text">P2</text></g><g transform="translate(-73.99166679382324,32)" class="site-group"><rect height="26" width="34.89999961853027" fill="#2cc30c" ry="3" rx="3" class="site-rect"></rect><circle transform="translate(0,0)" r="2" cx="0" cy="0" class="site-proof"></circle><text y="13" x="17.449999809265137" style="text-anchor: middle;" class="site-text">S12</text></g></g><g transform="translate(70,283.83331298828125)" class="node-group"><text y="0" x="0" style="text-anchor: middle;" class="node-text">Prot1</text><rect height="90" width="113.04999923706055" y="-45" x="-56.52499961853027" fill="#1fceca" class="node-rect" ry="5" rx="5"></rect><circle r="2" cx="0" cy="0" class="node-proof"></circle><g transform="translate(-70.0833330154419,32)" class="site-group"><rect height="26" width="27.116666793823242" fill="#1fceca" ry="3" rx="3" class="site-rect"></rect><circle transform="translate(0,0)" r="2" cx="0" cy="0" class="site-proof"></circle><text y="13" x="13.558333396911621" style="text-anchor: middle;" class="site-text">P2</text></g><g transform="translate(-13.558333396911621,32)" class="site-group"><rect height="26" width="27.116666793823242" fill="#1fceca" ry="3" rx="3" class="site-rect"></rect><circle transform="translate(0,0)" r="2" cx="0" cy="0" class="site-proof"></circle><text y="13" x="13.558333396911621" style="text-anchor: middle;" class="site-text">P3</text></g><g transform="translate(39.07499980926514,32)" class="site-group"><rect height="26" width="34.89999961853027" fill="#1fceca" ry="3" rx="3" class="site-rect"></rect><circle transform="translate(0,0)" r="2" cx="0" cy="0" class="site-proof"></circle><text y="13" x="17.449999809265137" style="text-anchor: middle;" class="site-text">S12</text></g></g><circle r="2" cx="420.5249996185303" cy="285.83331298828125" class="link-proof"></circle><circle r="2" cx="307.4750003814697" cy="330.83331298828125" class="link-proof"></circle><circle r="2" cx="364" cy="330.83331298828125" class="link-proof"></circle><circle r="2" cx="296.4750003814697" cy="444.83331298828125" class="link-proof"></circle><circle r="2" cx="409.5249996185303" cy="399.83331298828125" class="link-proof"></circle><circle r="2" cx="353" cy="444.83331298828125" class="link-proof"></circle><circle r="2" cx="463.4583330154419" cy="400.83331298828125" class="link-proof"></circle><circle r="2" cx="520" cy="355.83331298828125" class="link-proof"></circle><circle r="2" cx="463.4583330154419" cy="445.83331298828125" class="link-proof"></circle><circle r="2" cx="462.4750003814697" cy="280.83331298828125" class="link-proof"></circle><circle r="2" cx="519" cy="325.83331298828125" class="link-proof"></circle><circle r="2" cx="462.4750003814697" cy="325.83331298828125" class="link-proof"></circle><circle r="2" cx="161.47500038146973" cy="211.8333282470703" class="link-proof"></circle><circle r="2" cx="218" cy="211.8333282470703" class="link-proof"></circle><circle r="2" cx="274.5249996185303" cy="211.8333282470703" class="link-proof"></circle><circle r="2" cx="220" cy="244.83331298828125" class="link-proof"></circle><circle r="2" cx="163.4583330154419" cy="334.83331298828125" class="link-proof"></circle><circle r="2" cx="220" cy="334.83331298828125" class="link-proof"></circle><circle r="2" cx="156.47500038146973" cy="399.83331298828125" class="link-proof"></circle><circle r="2" cx="156.47500038146973" cy="444.83331298828125" class="link-proof"></circle><circle r="2" cx="213" cy="444.83331298828125" class="link-proof"></circle><circle r="2" cx="118.52499961853027" cy="398.83331298828125" class="link-proof"></circle><circle r="2" cx="5.475000381469727" cy="443.83331298828125" class="link-proof"></circle><circle r="2" cx="62" cy="443.83331298828125" class="link-proof"></circle><circle r="2" cx="313.4750003814697" cy="211.8333282470703" class="link-proof"></circle><circle r="2" cx="426.5249996185303" cy="166.8333282470703" class="link-proof"></circle><circle r="2" cx="370" cy="211.8333282470703" class="link-proof"></circle><circle r="2" cx="74" cy="125.83332824707031" class="link-proof"></circle><circle r="2" cx="17.475000381469727" cy="215.8333282470703" class="link-proof"></circle><circle r="2" cx="74" cy="215.8333282470703" class="link-proof"></circle><circle r="2" cx="68" cy="91.83332824707031" class="link-proof"></circle><circle r="2" cx="124.52499961853027" cy="46.83332824707031" class="link-proof"></circle><circle r="2" cx="11.475000381469727" cy="91.83332824707031" class="link-proof"></circle><circle r="2" cx="271.0416669845581" cy="42.83332824707031" class="link-proof"></circle><circle r="2" cx="157.9583330154419" cy="42.83332824707031" class="link-proof"></circle><circle r="2" cx="157.9583330154419" cy="87.83332824707031" class="link-proof"></circle><circle r="2" cx="420.5249996185303" cy="42.83332824707031" class="link-proof"></circle><circle r="2" cx="307.4750003814697" cy="42.83332824707031" class="link-proof"></circle><circle r="2" cx="307.4750003814697" cy="87.83332824707031" class="link-proof"></circle><circle r="2" cx="458.4750003814697" cy="40.83332824707031" class="link-proof"></circle><circle r="2" cx="515" cy="85.83332824707031" class="link-proof"></circle><circle r="2" cx="458.4750003814697" cy="85.83332824707031" class="link-proof"></circle><circle r="2" cx="460.4583330154419" cy="166.8333282470703" class="link-proof"></circle><circle r="2" cx="517" cy="121.83332824707031" class="link-proof"></circle><circle r="2" cx="460.4583330154419" cy="211.8333282470703" class="link-proof"></circle><circle r="2" cx="13.475000381469727" cy="328.83331298828125" class="link-proof"></circle><circle r="2" cx="70" cy="328.83331298828125" class="link-proof"></circle><circle r="2" cx="126.52499961853027" cy="328.83331298828125" class="link-proof"></circle></g></svg>