<?xml version="1.0" encoding="utf-8"?>
<!-- Generator: Adobe Illustrator 19.1.0, SVG Export Plug-In . SVG Version: 6.00 Build 0)  -->
<svg version="1.1" id="Layer_1" xmlns="http://www.w3.org/2000/svg" xmlns:xlink="http://www.w3.org/1999/xlink" x="0px" y="0px"
	 viewBox="-89 -5.3 792 612" enable-background="new -89 -5.3 792 612" xml:space="preserve">
<g transform="translate(10,10)">
	<path stroke="#000000" stroke-width="2" d="M453.9,402.2l42-5"/>
	<path stroke="#000000" stroke-width="2" d="M442.9,516.2l53.9,1"/>
	<path stroke="#000000" stroke-width="2" d="M496.8,517.2l-53.9-1"/>
	<path stroke="#000000" stroke-width="2" d="M553.3,472.2l-1-30"/>
	<path stroke="#000000" stroke-width="2" d="M495.8,397.2l-42,5"/>
	<path stroke="#000000" stroke-width="2" d="M552.3,442.2l1,30"/>
	<path stroke="#000000" stroke-width="2" d="M615.9,158.7l2,33"/>
	<path stroke="#000000" stroke-width="2" d="M617.9,191.7l-2-33"/>
	<path stroke="#000000" stroke-width="2" d="M78.4,517.2l-38-1"/>
	<path stroke="#000000" stroke-width="2" d="M40.5,516.2l38,1"/>
	<path stroke="#000000" stroke-width="2" d="M338.6,175.7h33.9"/>
	<path stroke="#000000" stroke-width="2" d="M-14,134.7l-6-34"/>
	<path stroke="#000000" stroke-width="2" d="M-20,100.7l6,34"/>
	<path stroke="#000000" stroke-width="2" d="M36.6,55.7l33.4-4"/>
	<path stroke="#000000" stroke-width="2" d="M183.1,51.7h36.4"/>
	<path stroke="#000000" stroke-width="2" d="M70,51.7l-33.4,4"/>
	<path stroke="#000000" stroke-width="2" d="M332.6,51.7l38-2"/>
	<path stroke="#000000" stroke-width="2" d="M219.5,51.7h-36.4"/>
	<path stroke="#000000" stroke-width="2" d="M370.5,49.7l-38,2"/>
	<path stroke="#000000" stroke-width="2" d="M427,94.7l2,36"/>
	<path stroke="#000000" stroke-width="2" d="M372.5,175.7h-33.9"/>
	<path stroke="#000000" stroke-width="2" d="M429,130.7l-2-36"/>
	<g transform="translate(364,285.83331298828125)">
		<text transform="matrix(1 0 0 1 21.3785 116.3333)" font-family="'ArialMT'" font-size="10px">Prot1</text>
		<path fill="#1FCECA" fill-opacity="0.5" stroke="#000000" stroke-width="2" d="M-18.2,71.3H84.9c2.8,0,5,2.2,5,5v80
			c0,2.8-2.2,5-5,5H-18.2c-2.8,0-5-2.2-5-5v-80C-23.2,73.6-21,71.3-18.2,71.3z"/>
		<circle fill-opacity="0" cx="33.3" cy="116.3" r="2"/>
		<g transform="translate(42.96666622161865,-13)">
			<path fill="#1FCECA" stroke="#000000" d="M36.3,116.3h21.1c1.7,0,3,1.3,3,3v20c0,1.7-1.3,3-3,3H36.3c-1.7,0-3-1.3-3-3v-20
				C33.3,117.7,34.7,116.3,36.3,116.3z"/>
			<circle fill="#0000FF" fill-opacity="0" cx="33.3" cy="116.3" r="2"/>
			<text transform="matrix(1 0 0 1 39.5486 129.3333)" font-family="'ArialMT'" font-size="12px">P2</text>
		</g>
		<g transform="translate(-70.0833330154419,32)">
			<path fill="#1FCECA" stroke="#000000" d="M36.3,116.3h21.1c1.7,0,3,1.3,3,3v20c0,1.7-1.3,3-3,3H36.3c-1.7,0-3-1.3-3-3v-20
				C33.3,117.7,34.7,116.3,36.3,116.3z"/>
			<circle fill="#0000FF" fill-opacity="0" cx="33.3" cy="116.3" r="2"/>
			<text transform="matrix(1 0 0 1 39.5486 129.3333)" font-family="'ArialMT'" font-size="12px">P3</text>
		</g>
		<g transform="translate(-17.449999809265137,32)">
			<path fill="#1FCECA" stroke="#000000" d="M36.3,116.3h28.9c1.7,0,3,1.3,3,3v20c0,1.7-1.3,3-3,3H36.3c-1.7,0-3-1.3-3-3v-20
				C33.3,117.7,34.7,116.3,36.3,116.3z"/>
			<circle fill="#0000FF" fill-opacity="0" cx="33.3" cy="116.3" r="2"/>
			<text transform="matrix(1 0 0 1 40.1034 129.3333)" font-family="'ArialMT'" font-size="12px">S12</text>
		</g>
	</g>
	<g transform="translate(353,399.83331298828125)">
		<text transform="matrix(1 0 0 1 21.3785 116.3333)" font-family="'ArialMT'" font-size="10px">Prot1</text>
		<path fill="#1FCECA" fill-opacity="0.5" stroke="#000000" stroke-width="2" d="M-18.2,71.3H84.9c2.8,0,5,2.2,5,5v80
			c0,2.8-2.2,5-5,5H-18.2c-2.8,0-5-2.2-5-5v-80C-23.2,73.6-21,71.3-18.2,71.3z"/>
		<circle fill-opacity="0" cx="33.3" cy="116.3" r="2"/>
		<g transform="translate(-70.0833330154419,32)">
			<path fill="#1FCECA" stroke="#000000" d="M36.3,116.3h21.1c1.7,0,3,1.3,3,3v20c0,1.7-1.3,3-3,3H36.3c-1.7,0-3-1.3-3-3v-20
				C33.3,117.7,34.7,116.3,36.3,116.3z"/>
			<circle fill="#0000FF" fill-opacity="0" cx="33.3" cy="116.3" r="2"/>
			<text transform="matrix(1 0 0 1 39.5486 129.3333)" font-family="'ArialMT'" font-size="12px">P2</text>
		</g>
		<g transform="translate(42.96666622161865,-13)">
			<path fill="#1FCECA" stroke="#000000" d="M36.3,116.3h21.1c1.7,0,3,1.3,3,3v20c0,1.7-1.3,3-3,3H36.3c-1.7,0-3-1.3-3-3v-20
				C33.3,117.7,34.7,116.3,36.3,116.3z"/>
			<circle fill="#0000FF" fill-opacity="0" cx="33.3" cy="116.3" r="2"/>
			<text transform="matrix(1 0 0 1 39.5486 129.3333)" font-family="'ArialMT'" font-size="12px">P3</text>
		</g>
		<g transform="translate(-17.449999809265137,32)">
			<path fill="#1FCECA" stroke="#000000" d="M36.3,116.3h28.9c1.7,0,3,1.3,3,3v20c0,1.7-1.3,3-3,3H36.3c-1.7,0-3-1.3-3-3v-20
				C33.3,117.7,34.7,116.3,36.3,116.3z"/>
			<circle fill="#0000FF" fill-opacity="0" cx="33.3" cy="116.3" r="2"/>
			<text transform="matrix(1 0 0 1 40.1034 129.3333)" font-family="'ArialMT'" font-size="12px">S12</text>
		</g>
	</g>
	<g transform="translate(520,400.83331298828125)">
		<text transform="matrix(1 0 0 1 21.3785 116.3333)" font-family="'ArialMT'" font-size="10px">Prot3</text>
		<path fill="#2CC30C" fill-opacity="0.5" stroke="#000000" stroke-width="2" d="M-18.2,71.3H84.9c2.8,0,5,2.2,5,5v80
			c0,2.8-2.2,5-5,5H-18.2c-2.8,0-5-2.2-5-5v-80C-23.2,73.6-21,71.3-18.2,71.3z"/>
		<circle fill-opacity="0" cx="33.3" cy="116.3" r="2"/>
		<g transform="translate(-70.10000038146973,-13)">
			<path fill="#2CC30C" stroke="#000000" d="M36.3,116.3h21.1c1.7,0,3,1.3,3,3v20c0,1.7-1.3,3-3,3H36.3c-1.7,0-3-1.3-3-3v-20
				C33.3,117.7,34.7,116.3,36.3,116.3z"/>
			<circle fill="#0000FF" fill-opacity="0" cx="33.3" cy="116.3" r="2"/>
			<text transform="matrix(1 0 0 1 39.5487 129.3333)" font-family="'ArialMT'" font-size="12px">P1</text>
		</g>
		<g transform="translate(-13.558333396911621,-58)">
			<path fill="#2CC30C" stroke="#000000" d="M36.3,116.3h21.1c1.7,0,3,1.3,3,3v20c0,1.7-1.3,3-3,3H36.3c-1.7,0-3-1.3-3-3v-20
				C33.3,117.7,34.7,116.3,36.3,116.3z"/>
			<circle fill="#0000FF" fill-opacity="0" cx="33.3" cy="116.3" r="2"/>
			<text transform="matrix(1 0 0 1 39.5486 129.3333)" font-family="'ArialMT'" font-size="12px">P2</text>
		</g>
		<g transform="translate(-73.99166679382324,32)">
			<path fill="#2CC30C" stroke="#000000" d="M36.3,116.3h28.9c1.7,0,3,1.3,3,3v20c0,1.7-1.3,3-3,3H36.3c-1.7,0-3-1.3-3-3v-20
				C33.3,117.7,34.7,116.3,36.3,116.3z"/>
			<circle fill="#0000FF" fill-opacity="0" cx="33.3" cy="116.3" r="2"/>
			<text transform="matrix(1 0 0 1 40.1034 129.3333)" font-family="'ArialMT'" font-size="12px">S12</text>
		</g>
	</g>
	<g transform="translate(519,280.83331298828125)">
		<text transform="matrix(1 0 0 1 21.3785 116.3333)" font-family="'ArialMT'" font-size="10px">Prot2</text>
		<path fill="#A648EB" fill-opacity="0.5" stroke="#000000" stroke-width="2" d="M-18.2,71.3H84.9c2.8,0,5,2.2,5,5v80
			c0,2.8-2.2,5-5,5H-18.2c-2.8,0-5-2.2-5-5v-80C-23.2,73.6-21,71.3-18.2,71.3z"/>
		<circle fill-opacity="0" cx="33.3" cy="116.3" r="2"/>
		<g transform="translate(-70.0833330154419,-13)">
			<path fill="#A648EB" stroke="#000000" d="M36.3,116.3h21.1c1.7,0,3,1.3,3,3v20c0,1.7-1.3,3-3,3H36.3c-1.7,0-3-1.3-3-3v-20
				C33.3,117.7,34.7,116.3,36.3,116.3z"/>
			<circle fill="#0000FF" fill-opacity="0" cx="33.3" cy="116.3" r="2"/>
			<text transform="matrix(1 0 0 1 39.5486 129.3333)" font-family="'ArialMT'" font-size="12px">P1</text>
		</g>
		<g transform="translate(-13.558333396911621,32)">
			<path fill="#A648EB" stroke="#000000" d="M36.3,116.3h21.1c1.7,0,3,1.3,3,3v20c0,1.7-1.3,3-3,3H36.3c-1.7,0-3-1.3-3-3v-20
				C33.3,117.7,34.7,116.3,36.3,116.3z"/>
			<circle fill="#0000FF" fill-opacity="0" cx="33.3" cy="116.3" r="2"/>
			<text transform="matrix(1 0 0 1 39.5486 129.3333)" font-family="'ArialMT'" font-size="12px">P3</text>
		</g>
		<g transform="translate(-73.97499942779541,32)">
			<path fill="#A648EB" stroke="#000000" d="M36.3,116.3h28.9c1.7,0,3,1.3,3,3v20c0,1.7-1.3,3-3,3H36.3c-1.7,0-3-1.3-3-3v-20
				C33.3,117.7,34.7,116.3,36.3,116.3z"/>
			<circle fill="#0000FF" fill-opacity="0" cx="33.3" cy="116.3" r="2"/>
			<text transform="matrix(1 0 0 1 40.1034 129.3333)" font-family="'ArialMT'" font-size="12px">S12</text>
		</g>
	</g>
	<g transform="translate(218,166.8333282470703)">
		<text transform="matrix(1 0 0 1 385.9854 -53.1667)" font-family="'ArialMT'" font-size="10px">Prot1</text>
		<path fill="#1FCECA" fill-opacity="0.5" stroke="#000000" stroke-width="2" d="M346.4-98.2h103c2.8,0,5,2.2,5,5v80
			c0,2.8-2.2,5-5,5h-103c-2.8,0-5-2.2-5-5v-80C341.4-95.9,343.6-98.2,346.4-98.2z"/>
		<circle fill-opacity="0" cx="397.9" cy="-53.2" r="2"/>
		<g transform="translate(-70.0833330154419,32)">
			<path fill="#1FCECA" stroke="#000000" d="M400.9-53.2h21.1c1.7,0,3,1.3,3,3v20c0,1.7-1.3,3-3,3h-21.1c-1.7,0-3-1.3-3-3v-20
				C397.9-51.8,399.3-53.2,400.9-53.2z"/>
			<circle fill="#0000FF" fill-opacity="0" cx="397.9" cy="-53.2" r="2"/>
			<text transform="matrix(1 0 0 1 404.1555 -40.1667)" font-family="'ArialMT'" font-size="12px">P2</text>
		</g>
		<g transform="translate(-13.558333396911621,32)">
			<path fill="#1FCECA" stroke="#000000" d="M400.9-53.2h21.1c1.7,0,3,1.3,3,3v20c0,1.7-1.3,3-3,3h-21.1c-1.7,0-3-1.3-3-3v-20
				C397.9-51.8,399.3-53.2,400.9-53.2z"/>
			<circle fill="#0000FF" fill-opacity="0" cx="397.9" cy="-53.2" r="2"/>
			<text transform="matrix(1 0 0 1 404.1555 -40.1667)" font-family="'ArialMT'" font-size="12px">P3</text>
		</g>
		<g transform="translate(39.07499980926514,32)">
			<path fill="#1FCECA" stroke="#000000" d="M400.9-53.2h28.9c1.7,0,3,1.3,3,3v20c0,1.7-1.3,3-3,3h-28.9c-1.7,0-3-1.3-3-3v-20
				C397.9-51.8,399.3-53.2,400.9-53.2z"/>
			<circle fill="#0000FF" fill-opacity="0" cx="397.9" cy="-53.2" r="2"/>
			<text transform="matrix(1 0 0 1 404.7103 -40.1667)" font-family="'ArialMT'" font-size="12px">S12</text>
		</g>
	</g>
	<g transform="translate(220,289.83331298828125)">
		<text transform="matrix(1 0 0 1 385.9854 -53.1667)" font-family="'ArialMT'" font-size="10px">Prot3</text>
		<path fill="#2CC30C" fill-opacity="0.5" stroke="#000000" stroke-width="2" d="M346.4-98.2h103.1c2.8,0,5,2.2,5,5v80
			c0,2.8-2.2,5-5,5H346.4c-2.8,0-5-2.2-5-5v-80C341.4-95.9,343.6-98.2,346.4-98.2z"/>
		<circle fill-opacity="0" cx="397.9" cy="-53.2" r="2"/>
		<g transform="translate(-13.558333396911621,-58)">
			<path fill="#2CC30C" stroke="#000000" d="M400.9-53.2h21.1c1.7,0,3,1.3,3,3v20c0,1.7-1.3,3-3,3h-21.1c-1.7,0-3-1.3-3-3v-20
				C397.9-51.8,399.3-53.2,400.9-53.2z"/>
			<circle fill="#0000FF" fill-opacity="0" cx="397.9" cy="-53.2" r="2"/>
			<text transform="matrix(1 0 0 1 404.1555 -40.1667)" font-family="'ArialMT'" font-size="12px">P1</text>
		</g>
		<g transform="translate(-70.10000038146973,32)">
			<path fill="#2CC30C" stroke="#000000" d="M400.9-53.2h21.1c1.7,0,3,1.3,3,3v20c0,1.7-1.3,3-3,3h-21.1c-1.7,0-3-1.3-3-3v-20
				C397.9-51.8,399.3-53.2,400.9-53.2z"/>
			<circle fill="#0000FF" fill-opacity="0" cx="397.9" cy="-53.2" r="2"/>
			<text transform="matrix(1 0 0 1 404.1555 -40.1667)" font-family="'ArialMT'" font-size="12px">P2</text>
		</g>
		<g transform="translate(-17.449999809265137,32)">
			<path fill="#2CC30C" stroke="#000000" d="M400.9-53.2h28.9c1.7,0,3,1.3,3,3v20c0,1.7-1.3,3-3,3h-28.9c-1.7,0-3-1.3-3-3v-20
				C397.9-51.8,399.3-53.2,400.9-53.2z"/>
			<circle fill="#0000FF" fill-opacity="0" cx="397.9" cy="-53.2" r="2"/>
			<text transform="matrix(1 0 0 1 404.7103 -40.1667)" font-family="'ArialMT'" font-size="12px">S12</text>
		</g>
	</g>
	<g transform="translate(213,399.83331298828125)">
		<text transform="matrix(1 0 0 1 -90.0257 117.3333)" font-family="'ArialMT'" font-size="10px">Prot1</text>
		<path fill="#1FCECA" fill-opacity="0.5" stroke="#000000" stroke-width="2" d="M-129.6,72.3h103.1c2.8,0,5,2.2,5,5v80
			c0,2.8-2.2,5-5,5h-103.1c-2.8,0-5-2.2-5-5v-80C-134.6,74.6-132.4,72.3-129.6,72.3z"/>
		<circle fill-opacity="0" cx="-78.1" cy="117.3" r="2"/>
		<g transform="translate(-70.0833330154419,-13)">
			<path fill="#1FCECA" stroke="#000000" d="M-75.1,117.3H-54c1.7,0,3,1.3,3,3v20c0,1.7-1.3,3-3,3h-21.1c-1.7,0-3-1.3-3-3v-20
				C-78.1,118.7-76.7,117.3-75.1,117.3z"/>
			<circle fill="#0000FF" fill-opacity="0" cx="-78.1" cy="117.3" r="2"/>
			<text transform="matrix(1 0 0 1 -71.8555 130.3333)" font-family="'ArialMT'" font-size="12px">P2</text>
		</g>
		<g transform="translate(-70.0833330154419,32)">
			<path fill="#1FCECA" stroke="#000000" d="M-75.1,117.3H-54c1.7,0,3,1.3,3,3v20c0,1.7-1.3,3-3,3h-21.1c-1.7,0-3-1.3-3-3v-20
				C-78.1,118.7-76.7,117.3-75.1,117.3z"/>
			<circle fill="#0000FF" fill-opacity="0" cx="-78.1" cy="117.3" r="2"/>
			<text transform="matrix(1 0 0 1 -71.8555 130.3333)" font-family="'ArialMT'" font-size="12px">P3</text>
		</g>
		<g transform="translate(-17.449999809265137,32)">
			<path fill="#1FCECA" stroke="#000000" d="M-75.1,117.3h28.9c1.7,0,3,1.3,3,3v20c0,1.7-1.3,3-3,3h-28.9c-1.7,0-3-1.3-3-3v-20
				C-78.1,118.7-76.7,117.3-75.1,117.3z"/>
			<circle fill="#0000FF" fill-opacity="0" cx="-78.1" cy="117.3" r="2"/>
			<text transform="matrix(1 0 0 1 -71.3008 130.3333)" font-family="'ArialMT'" font-size="12px">S12</text>
		</g>
	</g>
	<g transform="translate(62,398.83331298828125)">
		<text transform="matrix(1 0 0 1 -90.0257 117.3333)" font-family="'ArialMT'" font-size="10px">Prot2</text>
		<path fill="#A648EB" fill-opacity="0.5" stroke="#000000" stroke-width="2" d="M-129.6,72.3h103.1c2.8,0,5,2.2,5,5v80
			c0,2.8-2.2,5-5,5h-103.1c-2.8,0-5-2.2-5-5v-80C-134.6,74.6-132.4,72.3-129.6,72.3z"/>
		<circle fill-opacity="0" cx="-78.1" cy="117.3" r="2"/>
		<g transform="translate(42.96666622161865,-13)">
			<path fill="#A648EB" stroke="#000000" d="M-75.1,117.3H-54c1.7,0,3,1.3,3,3v20c0,1.7-1.3,3-3,3h-21.1c-1.7,0-3-1.3-3-3v-20
				C-78.1,118.7-76.7,117.3-75.1,117.3z"/>
			<circle fill="#0000FF" fill-opacity="0" cx="-78.1" cy="117.3" r="2"/>
			<text transform="matrix(1 0 0 1 -71.8555 130.3333)" font-family="'ArialMT'" font-size="12px">P1</text>
		</g>
		<g transform="translate(-70.0833330154419,32)">
			<path fill="#A648EB" stroke="#000000" d="M-75.1,117.3H-54c1.7,0,3,1.3,3,3v20c0,1.7-1.3,3-3,3h-21.1c-1.7,0-3-1.3-3-3v-20
				C-78.1,118.7-76.7,117.3-75.1,117.3z"/>
			<circle fill="#0000FF" fill-opacity="0" cx="-78.1" cy="117.3" r="2"/>
			<text transform="matrix(1 0 0 1 -71.8555 130.3333)" font-family="'ArialMT'" font-size="12px">P3</text>
		</g>
		<g transform="translate(-17.449999809265137,32)">
			<path fill="#A648EB" stroke="#000000" d="M-75.1,117.3h28.9c1.7,0,3,1.3,3,3v20c0,1.7-1.3,3-3,3h-28.9c-1.7,0-3-1.3-3-3v-20
				C-78.1,118.7-76.7,117.3-75.1,117.3z"/>
			<circle fill="#0000FF" fill-opacity="0" cx="-78.1" cy="117.3" r="2"/>
			<text transform="matrix(1 0 0 1 -71.3008 130.3333)" font-family="'ArialMT'" font-size="12px">S12</text>
		</g>
	</g>
	<g transform="translate(370,166.8333282470703)">
		<text transform="matrix(1 0 0 1 -99.9174 8.8333)" font-family="'ArialMT'" font-size="10px">Prot1</text>
		<path fill="#1FCECA" fill-opacity="0.5" stroke="#000000" stroke-width="2" d="M-139.5-36.2h103.1c2.8,0,5,2.2,5,5v80
			c0,2.8-2.2,5-5,5h-103.1c-2.8,0-5-2.2-5-5v-80C-144.5-33.9-142.3-36.2-139.5-36.2z"/>
		<circle fill-opacity="0" cx="-88" cy="8.8" r="2"/>
		<g transform="translate(-70.0833330154419,32)">
			<path fill="#1FCECA" stroke="#000000" d="M-85,8.8h21.1c1.7,0,3,1.3,3,3v20c0,1.7-1.3,3-3,3H-85c-1.7,0-3-1.3-3-3v-20
				C-88,10.2-86.6,8.8-85,8.8z"/>
			<circle fill="#0000FF" fill-opacity="0" cx="-88" cy="8.8" r="2"/>
			<text transform="matrix(1 0 0 1 -81.7472 21.8333)" font-family="'ArialMT'" font-size="12px">P2</text>
		</g>
		<g transform="translate(42.96666622161865,-13)">
			<path fill="#1FCECA" stroke="#000000" d="M-85,8.8h21.1c1.7,0,3,1.3,3,3v20c0,1.7-1.3,3-3,3H-85c-1.7,0-3-1.3-3-3v-20
				C-88,10.2-86.6,8.8-85,8.8z"/>
			<circle fill="#0000FF" fill-opacity="0" cx="-88" cy="8.8" r="2"/>
			<text transform="matrix(1 0 0 1 -81.7472 21.8333)" font-family="'ArialMT'" font-size="12px">P3</text>
		</g>
		<g transform="translate(-17.449999809265137,32)">
			<path fill="#1FCECA" stroke="#000000" d="M-85,8.8h28.9c1.7,0,3,1.3,3,3v20c0,1.7-1.3,3-3,3H-85c-1.7,0-3-1.3-3-3v-20
				C-88,10.2-86.6,8.8-85,8.8z"/>
			<circle fill="#0000FF" fill-opacity="0" cx="-88" cy="8.8" r="2"/>
			<text transform="matrix(1 0 0 1 -81.1925 21.8333)" font-family="'ArialMT'" font-size="12px">S12</text>
		</g>
	</g>
	<g transform="translate(74,170.8333282470703)">
		<text transform="matrix(1 0 0 1 -99.9174 8.8333)" font-family="'ArialMT'" font-size="10px">Prot1</text>
		<path fill="#1FCECA" fill-opacity="0.5" stroke="#000000" stroke-width="2" d="M-139.5-36.2h103.1c2.8,0,5,2.2,5,5v80
			c0,2.8-2.2,5-5,5h-103.1c-2.8,0-5-2.2-5-5v-80C-144.5-33.9-142.3-36.2-139.5-36.2z"/>
		<circle fill-opacity="0" cx="-88" cy="8.8" r="2"/>
		<g transform="translate(-13.558333396911621,-58)">
			<path fill="#1FCECA" stroke="#000000" d="M-85,8.8h21.1c1.7,0,3,1.3,3,3v20c0,1.7-1.3,3-3,3H-85c-1.7,0-3-1.3-3-3v-20
				C-88,10.2-86.6,8.8-85,8.8z"/>
			<circle fill="#0000FF" fill-opacity="0" cx="-88" cy="8.8" r="2"/>
			<text transform="matrix(1 0 0 1 -81.7472 21.8333)" font-family="'ArialMT'" font-size="12px">P2</text>
		</g>
		<g transform="translate(-70.0833330154419,32)">
			<path fill="#1FCECA" stroke="#000000" d="M-85,8.8h21.1c1.7,0,3,1.3,3,3v20c0,1.7-1.3,3-3,3H-85c-1.7,0-3-1.3-3-3v-20
				C-88,10.2-86.6,8.8-85,8.8z"/>
			<circle fill="#0000FF" fill-opacity="0" cx="-88" cy="8.8" r="2"/>
			<text transform="matrix(1 0 0 1 -81.7472 21.8333)" font-family="'ArialMT'" font-size="12px">P3</text>
		</g>
		<g transform="translate(-17.449999809265137,32)">
			<path fill="#1FCECA" stroke="#000000" d="M-85,8.8h28.9c1.7,0,3,1.3,3,3v20c0,1.7-1.3,3-3,3H-85c-1.7,0-3-1.3-3-3v-20
				C-88,10.2-86.6,8.8-85,8.8z"/>
			<circle fill="#0000FF" fill-opacity="0" cx="-88" cy="8.8" r="2"/>
			<text transform="matrix(1 0 0 1 -81.1925 21.8333)" font-family="'ArialMT'" font-size="12px">S12</text>
		</g>
	</g>
	<g transform="translate(68,46.83332824707031)">
		<text transform="matrix(1 0 0 1 -99.9174 8.8333)" font-family="'ArialMT'" font-size="10px">Prot2</text>
		<path fill="#A648EB" fill-opacity="0.5" stroke="#000000" stroke-width="2" d="M-139.5-36.2h103.1c2.8,0,5,2.2,5,5v80
			c0,2.8-2.2,5-5,5h-103.1c-2.8,0-5-2.2-5-5v-80C-144.5-33.9-142.3-36.2-139.5-36.2z"/>
		<circle fill-opacity="0" cx="-88" cy="8.8" r="2"/>
		<g transform="translate(-13.558333396911621,32)">
			<path fill="#A648EB" stroke="#000000" d="M-85,8.8h21.1c1.7,0,3,1.3,3,3v20c0,1.7-1.3,3-3,3H-85c-1.7,0-3-1.3-3-3v-20
				C-88,10.2-86.6,8.8-85,8.8z"/>
			<circle fill="#0000FF" fill-opacity="0" cx="-88" cy="8.8" r="2"/>
			<text transform="matrix(1 0 0 1 -81.7472 21.8333)" font-family="'ArialMT'" font-size="12px">P1</text>
		</g>
		<g transform="translate(42.96666622161865,-13)">
			<path fill="#A648EB" stroke="#000000" d="M-85,8.8h21.1c1.7,0,3,1.3,3,3v20c0,1.7-1.3,3-3,3H-85c-1.7,0-3-1.3-3-3v-20
				C-88,10.2-86.6,8.8-85,8.8z"/>
			<circle fill="#0000FF" fill-opacity="0" cx="-88" cy="8.8" r="2"/>
			<text transform="matrix(1 0 0 1 -81.7472 21.8333)" font-family="'ArialMT'" font-size="12px">P3</text>
		</g>
		<g transform="translate(-73.97499942779541,32)">
			<path fill="#A648EB" stroke="#000000" d="M-85,8.8h28.9c1.7,0,3,1.3,3,3v20c0,1.7-1.3,3-3,3H-85c-1.7,0-3-1.3-3-3v-20
				C-88,10.2-86.6,8.8-85,8.8z"/>
			<circle fill="#0000FF" fill-opacity="0" cx="-88" cy="8.8" r="2"/>
			<text transform="matrix(1 0 0 1 -81.1925 21.8333)" font-family="'ArialMT'" font-size="12px">S12</text>
		</g>
	</g>
	<g transform="translate(214.5,42.83332824707031)">
		<text transform="matrix(1 0 0 1 -99.9174 8.8333)" font-family="'ArialMT'" font-size="10px">Prot3</text>
		<path fill="#2CC30C" fill-opacity="0.5" stroke="#000000" stroke-width="2" d="M-139.5-36.2h103.1c2.8,0,5,2.2,5,5v80
			c0,2.8-2.2,5-5,5h-103.1c-2.8,0-5-2.2-5-5v-80C-144.5-33.9-142.3-36.2-139.5-36.2z"/>
		<circle fill-opacity="0" cx="-88" cy="8.8" r="2"/>
		<g transform="translate(42.983333587646484,-13)">
			<path fill="#2CC30C" stroke="#000000" d="M-85,8.8h21.1c1.7,0,3,1.3,3,3v20c0,1.7-1.3,3-3,3H-85c-1.7,0-3-1.3-3-3v-20
				C-88,10.2-86.6,8.8-85,8.8z"/>
			<circle fill="#0000FF" fill-opacity="0" cx="-88" cy="8.8" r="2"/>
			<text transform="matrix(1 0 0 1 -81.7472 21.8333)" font-family="'ArialMT'" font-size="12px">P1</text>
		</g>
		<g transform="translate(-70.10000038146973,-13)">
			<path fill="#2CC30C" stroke="#000000" d="M-85,8.8h21.1c1.7,0,3,1.3,3,3v20c0,1.7-1.3,3-3,3H-85c-1.7,0-3-1.3-3-3v-20
				C-88,10.2-86.6,8.8-85,8.8z"/>
			<circle fill="#0000FF" fill-opacity="0" cx="-88" cy="8.8" r="2"/>
			<text transform="matrix(1 0 0 1 -81.7472 21.8333)" font-family="'ArialMT'" font-size="12px">P2</text>
		</g>
		<g transform="translate(-73.99166679382324,32)">
			<path fill="#2CC30C" stroke="#000000" d="M-85,8.8h28.9c1.7,0,3,1.3,3,3v20c0,1.7-1.3,3-3,3H-85c-1.7,0-3-1.3-3-3v-20
				C-88,10.2-86.6,8.8-85,8.8z"/>
			<circle fill="#0000FF" fill-opacity="0" cx="-88" cy="8.8" r="2"/>
			<text transform="matrix(1 0 0 1 -81.1925 21.8333)" font-family="'ArialMT'" font-size="12px">S12</text>
		</g>
	</g>
	<g transform="translate(364,42.83332824707031)">
		<text transform="matrix(1 0 0 1 -99.9174 8.8333)" font-family="'ArialMT'" font-size="10px">Prot1</text>
		<path fill="#1FCECA" fill-opacity="0.5" stroke="#000000" stroke-width="2" d="M-139.5-36.2h103.1c2.8,0,5,2.2,5,5v80
			c0,2.8-2.2,5-5,5h-103.1c-2.8,0-5-2.2-5-5v-80C-144.5-33.9-142.3-36.2-139.5-36.2z"/>
		<circle fill-opacity="0" cx="-88" cy="8.8" r="2"/>
		<g transform="translate(42.96666622161865,-13)">
			<path fill="#1FCECA" stroke="#000000" d="M-85,8.8h21.1c1.7,0,3,1.3,3,3v20c0,1.7-1.3,3-3,3H-85c-1.7,0-3-1.3-3-3v-20
				C-88,10.2-86.6,8.8-85,8.8z"/>
			<circle fill="#0000FF" fill-opacity="0" cx="-88" cy="8.8" r="2"/>
			<text transform="matrix(1 0 0 1 -81.7472 21.8333)" font-family="'ArialMT'" font-size="12px">P2</text>
		</g>
		<g transform="translate(-70.0833330154419,-13)">
			<path fill="#1FCECA" stroke="#000000" d="M-85,8.8h21.1c1.7,0,3,1.3,3,3v20c0,1.7-1.3,3-3,3H-85c-1.7,0-3-1.3-3-3v-20
				C-88,10.2-86.6,8.8-85,8.8z"/>
			<circle fill="#0000FF" fill-opacity="0" cx="-88" cy="8.8" r="2"/>
			<text transform="matrix(1 0 0 1 -81.7472 21.8333)" font-family="'ArialMT'" font-size="12px">P3</text>
		</g>
		<g transform="translate(-73.97499942779541,32)">
			<path fill="#1FCECA" stroke="#000000" d="M-85,8.8h28.9c1.7,0,3,1.3,3,3v20c0,1.7-1.3,3-3,3H-85c-1.7,0-3-1.3-3-3v-20
				C-88,10.2-86.6,8.8-85,8.8z"/>
			<circle fill="#0000FF" fill-opacity="0" cx="-88" cy="8.8" r="2"/>
			<text transform="matrix(1 0 0 1 -81.1925 21.8333)" font-family="'ArialMT'" font-size="12px">S12</text>
		</g>
	</g>
	<g transform="translate(515,40.83332824707031)">
		<text transform="matrix(1 0 0 1 -99.9174 8.8333)" font-family="'ArialMT'" font-size="10px">Prot2</text>
		<path fill="#A648EB" fill-opacity="0.5" stroke="#000000" stroke-width="2" d="M-139.5-36.2h103.1c2.8,0,5,2.2,5,5v80
			c0,2.8-2.2,5-5,5h-103.1c-2.8,0-5-2.2-5-5v-80C-144.5-33.9-142.3-36.2-139.5-36.2z"/>
		<circle fill-opacity="0" cx="-88" cy="8.8" r="2"/>
		<g transform="translate(-70.0833330154419,-13)">
			<path fill="#A648EB" stroke="#000000" d="M-85,8.8h21.1c1.7,0,3,1.3,3,3v20c0,1.7-1.3,3-3,3H-85c-1.7,0-3-1.3-3-3v-20
				C-88,10.2-86.6,8.8-85,8.8z"/>
			<circle fill="#0000FF" fill-opacity="0" cx="-88" cy="8.8" r="2"/>
			<text transform="matrix(1 0 0 1 -81.7472 21.8333)" font-family="'ArialMT'" font-size="12px">P1</text>
		</g>
		<g transform="translate(-13.558333396911621,32)">
			<path fill="#A648EB" stroke="#000000" d="M-85,8.8h21.1c1.7,0,3,1.3,3,3v20c0,1.7-1.3,3-3,3H-85c-1.7,0-3-1.3-3-3v-20
				C-88,10.2-86.6,8.8-85,8.8z"/>
			<circle fill="#0000FF" fill-opacity="0" cx="-88" cy="8.8" r="2"/>
			<text transform="matrix(1 0 0 1 -81.7472 21.8333)" font-family="'ArialMT'" font-size="12px">P3</text>
		</g>
		<g transform="translate(-73.97499942779541,32)">
			<path fill="#A648EB" stroke="#000000" d="M-85,8.8h28.9c1.7,0,3,1.3,3,3v20c0,1.7-1.3,3-3,3H-85c-1.7,0-3-1.3-3-3v-20
				C-88,10.2-86.6,8.8-85,8.8z"/>
			<circle fill="#0000FF" fill-opacity="0" cx="-88" cy="8.8" r="2"/>
			<text transform="matrix(1 0 0 1 -81.1925 21.8333)" font-family="'ArialMT'" font-size="12px">S12</text>
		</g>
	</g>
	<g transform="translate(517,166.8333282470703)">
		<text transform="matrix(1 0 0 1 -99.9174 8.8333)" font-family="'ArialMT'" font-size="10px">Prot3</text>
		<path fill="#2CC30C" fill-opacity="0.5" stroke="#000000" stroke-width="2" d="M-139.5-36.2h103.1c2.8,0,5,2.2,5,5v80
			c0,2.8-2.2,5-5,5h-103.1c-2.8,0-5-2.2-5-5v-80C-144.5-33.9-142.3-36.2-139.5-36.2z"/>
		<circle fill-opacity="0" cx="-88" cy="8.8" r="2"/>
		<g transform="translate(-70.10000038146973,-13)">
			<path fill="#2CC30C" stroke="#000000" d="M-85,8.8h21.1c1.7,0,3,1.3,3,3v20c0,1.7-1.3,3-3,3H-85c-1.7,0-3-1.3-3-3v-20
				C-88,10.2-86.6,8.8-85,8.8z"/>
			<circle fill="#0000FF" fill-opacity="0" cx="-88" cy="8.8" r="2"/>
			<text transform="matrix(1 0 0 1 -81.7472 21.8333)" font-family="'ArialMT'" font-size="12px">P1</text>
		</g>
		<g transform="translate(-13.558333396911621,-58)">
			<path fill="#2CC30C" stroke="#000000" d="M-85,8.8h21.1c1.7,0,3,1.3,3,3v20c0,1.7-1.3,3-3,3H-85c-1.7,0-3-1.3-3-3v-20
				C-88,10.2-86.6,8.8-85,8.8z"/>
			<circle fill="#0000FF" fill-opacity="0" cx="-88" cy="8.8" r="2"/>
			<text transform="matrix(1 0 0 1 -81.7472 21.8333)" font-family="'ArialMT'" font-size="12px">P2</text>
		</g>
		<g transform="translate(-73.99166679382324,32)">
			<path fill="#2CC30C" stroke="#000000" d="M-85,8.8h28.9c1.7,0,3,1.3,3,3v20c0,1.7-1.3,3-3,3H-85c-1.7,0-3-1.3-3-3v-20
				C-88,10.2-86.6,8.8-85,8.8z"/>
			<circle fill="#0000FF" fill-opacity="0" cx="-88" cy="8.8" r="2"/>
			<text transform="matrix(1 0 0 1 -81.1924 21.8333)" font-family="'ArialMT'" font-size="12px">S12</text>
		</g>
	</g>
	<g transform="translate(70,283.83331298828125)">
		<text transform="matrix(1 0 0 1 -32.7798 70.3333)" font-family="'ArialMT'" font-size="10px">Prot1</text>
		<path fill="#1FCECA" fill-opacity="0.5" stroke="#000000" stroke-width="2" d="M-72.4,25.3H30.7c2.8,0,5,2.2,5,5v80
			c0,2.8-2.2,5-5,5H-72.4c-2.8,0-5-2.2-5-5v-80C-77.4,27.6-75.1,25.3-72.4,25.3z"/>
		<circle fill-opacity="0" cx="-20.8" cy="70.3" r="2"/>
		<g transform="translate(-70.0833330154419,32)">
			<path fill="#1FCECA" stroke="#000000" d="M-17.8,70.3H3.3c1.7,0,3,1.3,3,3v20c0,1.7-1.3,3-3,3h-21.1c-1.7,0-3-1.3-3-3v-20
				C-20.8,71.7-19.5,70.3-17.8,70.3z"/>
			<circle fill="#0000FF" fill-opacity="0" cx="-20.8" cy="70.3" r="2"/>
			<text transform="matrix(1 0 0 1 -14.6097 83.3333)" font-family="'ArialMT'" font-size="12px">P2</text>
		</g>
		<g transform="translate(-13.558333396911621,32)">
			<path fill="#1FCECA" stroke="#000000" d="M-17.8,70.3H3.3c1.7,0,3,1.3,3,3v20c0,1.7-1.3,3-3,3h-21.1c-1.7,0-3-1.3-3-3v-20
				C-20.8,71.7-19.5,70.3-17.8,70.3z"/>
			<circle fill="#0000FF" fill-opacity="0" cx="-20.8" cy="70.3" r="2"/>
			<text transform="matrix(1 0 0 1 -14.6097 83.3333)" font-family="'ArialMT'" font-size="12px">P3</text>
		</g>
		<g transform="translate(39.07499980926514,32)">
			<path fill="#1FCECA" stroke="#000000" d="M-17.8,70.3h28.9c1.7,0,3,1.3,3,3v20c0,1.7-1.3,3-3,3h-28.9c-1.7,0-3-1.3-3-3v-20
				C-20.8,71.7-19.5,70.3-17.8,70.3z"/>
			<circle fill="#0000FF" fill-opacity="0" cx="-20.8" cy="70.3" r="2"/>
			<text transform="matrix(1 0 0 1 -14.055 83.3333)" font-family="'ArialMT'" font-size="12px">S12</text>
		</g>
	</g>
	<circle fill="#FF0000" fill-opacity="0" cx="453.9" cy="402.2" r="2"/>
	<circle fill="#FF0000" fill-opacity="0" cx="340.8" cy="447.2" r="2"/>
	<circle fill="#FF0000" fill-opacity="0" cx="397.3" cy="447.2" r="2"/>
	<circle fill="#FF0000" fill-opacity="0" cx="329.8" cy="561.2" r="2"/>
	<circle fill="#FF0000" fill-opacity="0" cx="442.9" cy="516.2" r="2"/>
	<circle fill="#FF0000" fill-opacity="0" cx="386.3" cy="561.2" r="2"/>
	<circle fill="#FF0000" fill-opacity="0" cx="496.8" cy="517.2" r="2"/>
	<circle fill="#FF0000" fill-opacity="0" cx="553.3" cy="472.2" r="2"/>
	<circle fill="#FF0000" fill-opacity="0" cx="496.8" cy="562.2" r="2"/>
	<circle fill="#FF0000" fill-opacity="0" cx="495.8" cy="397.2" r="2"/>
	<circle fill="#FF0000" fill-opacity="0" cx="552.3" cy="442.2" r="2"/>
	<circle fill="#FF0000" fill-opacity="0" cx="495.8" cy="442.2" r="2"/>
	<circle fill="#FF0000" fill-opacity="0" cx="559.4" cy="158.7" r="2"/>
	<circle fill="#FF0000" fill-opacity="0" cx="615.9" cy="158.7" r="2"/>
	<circle fill="#FF0000" fill-opacity="0" cx="672.5" cy="158.7" r="2"/>
	<circle fill="#FF0000" fill-opacity="0" cx="617.9" cy="191.7" r="2"/>
	<circle fill="#FF0000" fill-opacity="0" cx="561.4" cy="281.7" r="2"/>
	<circle fill="#FF0000" fill-opacity="0" cx="617.9" cy="281.7" r="2"/>
	<circle fill="#FF0000" fill-opacity="0" cx="78.4" cy="517.2" r="2"/>
	<circle fill="#FF0000" fill-opacity="0" cx="78.4" cy="562.2" r="2"/>
	<circle fill="#FF0000" fill-opacity="0" cx="134.9" cy="562.2" r="2"/>
	<circle fill="#FF0000" fill-opacity="0" cx="40.5" cy="516.2" r="2"/>
	<circle fill="#FF0000" fill-opacity="0" cx="-72.6" cy="561.2" r="2"/>
	<circle fill="#FF0000" fill-opacity="0" cx="-16.1" cy="561.2" r="2"/>
	<circle fill="#FF0000" fill-opacity="0" cx="225.5" cy="220.7" r="2"/>
	<circle fill="#FF0000" fill-opacity="0" cx="338.6" cy="175.7" r="2"/>
	<circle fill="#FF0000" fill-opacity="0" cx="282" cy="220.7" r="2"/>
	<circle fill="#FF0000" fill-opacity="0" cx="-14" cy="134.7" r="2"/>
	<circle fill="#FF0000" fill-opacity="0" cx="-70.5" cy="224.7" r="2"/>
	<circle fill="#FF0000" fill-opacity="0" cx="-14" cy="224.7" r="2"/>
	<circle fill="#FF0000" fill-opacity="0" cx="-20" cy="100.7" r="2"/>
	<circle fill="#FF0000" fill-opacity="0" cx="36.6" cy="55.7" r="2"/>
	<circle fill="#FF0000" fill-opacity="0" cx="-76.5" cy="100.7" r="2"/>
	<circle fill="#FF0000" fill-opacity="0" cx="183.1" cy="51.7" r="2"/>
	<circle fill="#FF0000" fill-opacity="0" cx="70" cy="51.7" r="2"/>
	<circle fill="#FF0000" fill-opacity="0" cx="70" cy="96.7" r="2"/>
	<circle fill="#FF0000" fill-opacity="0" cx="332.6" cy="51.7" r="2"/>
	<circle fill="#FF0000" fill-opacity="0" cx="219.5" cy="51.7" r="2"/>
	<circle fill="#FF0000" fill-opacity="0" cx="219.5" cy="96.7" r="2"/>
	<circle fill="#FF0000" fill-opacity="0" cx="370.5" cy="49.7" r="2"/>
	<circle fill="#FF0000" fill-opacity="0" cx="427" cy="94.7" r="2"/>
	<circle fill="#FF0000" fill-opacity="0" cx="370.5" cy="94.7" r="2"/>
	<circle fill="#FF0000" fill-opacity="0" cx="372.5" cy="175.7" r="2"/>
	<circle fill="#FF0000" fill-opacity="0" cx="429" cy="130.7" r="2"/>
	<circle fill="#FF0000" fill-opacity="0" cx="372.5" cy="220.7" r="2"/>
	<circle fill="#FF0000" fill-opacity="0" cx="-7.4" cy="399.2" r="2"/>
	<circle fill="#FF0000" fill-opacity="0" cx="49.2" cy="399.2" r="2"/>
	<circle fill="#FF0000" fill-opacity="0" cx="105.7" cy="399.2" r="2"/>
</g>
</svg>
